<svg version="1.1" xmlns="http://www.w3.org/2000/svg" xmlns:xlink="http://www.w3.org/1999/xlink" width="58" height="21.5" viewBox="0,0,58,21.5"><g transform="translate(-211,-169.25)"><g data-paper-data="{&quot;isPaintingLayer&quot;:true}" fill="#381616" fill-rule="nonzero" stroke="none" stroke-width="0" stroke-linecap="butt" stroke-linejoin="miter" stroke-miterlimit="10" stroke-dasharray="" stroke-dashoffset="0" style="mix-blend-mode: normal"><g><path d="M231,180.25c0,5.79899 -4.47716,10.5 -10,10.5c-5.52284,0 -10,-4.70101 -10,-10.5c0,-5.79899 4.47716,-10.5 10,-10.5c5.52284,0 10,4.70101 10,10.5z"/><path d="M269,179.75c0,5.79899 -4.47716,10.5 -10,10.5c-5.52284,0 -10,-4.70101 -10,-10.5c0,-5.79899 4.47716,-10.5 10,-10.5c5.52284,0 10,4.70101 10,10.5z"/><path d="M223.75,190.5v-21h38.5v21z"/></g></g></g></svg>